<?xml version="1.0" encoding="UTF-8"?>
<svg id="Calque_1" data-name="Calque 1" xmlns="http://www.w3.org/2000/svg" viewBox="0 0 150.1 41.96">
  <defs>
    <style>
      .cls-1, .cls-2, .cls-3 {
        fill: #939393;
      }

      .cls-4 {
        fill: #ec641c;
      }

      .cls-5 {
        letter-spacing: -.07em;
      }

      .cls-6 {
        fill: #4db8a3;
      }

      .cls-2 {
        font-size: 14px;
      }

      .cls-2, .cls-3 {
        font-family: Montserrat-Light, Montserrat;
        font-weight: 300;
      }

      .cls-3 {
        font-size: 14.12px;
      }

      .cls-7 {
        letter-spacing: -.05em;
      }

      .cls-8 {
        letter-spacing: -.05em;
      }

      .cls-9 {
        letter-spacing: -.1em;
      }
    </style>
  </defs>
  <text class="cls-3" transform="translate(.09 39.81) scale(.58)"><tspan x="0" y="0">A</tspan></text>
  <g>
    <g>
      <g>
        <path class="cls-1" d="M12.69,39.78h-3.14v-5.62h.7v4.95h2.44v.67Z"/>
        <path class="cls-1" d="M18.53,39.78h-3.94v-5.62h3.84v.68h-3.13v1.76h2.8v.68h-2.8v1.84h3.24v.67Z"/>
        <path class="cls-1" d="M26.12,39.78h-.65v-.03s0-4.44,0-4.44l-1.97,3.88h-.42v-.02s-1.96-3.87-1.96-3.87v4.47h-.67v-5.62h.84v.02s2.01,3.94,2.01,3.94l2-3.96h.83v5.62Z"/>
        <path class="cls-1" d="M31.96,39.78h-3.94v-5.62h3.84v.68h-3.13v1.76h2.8v.68h-2.8v1.84h3.24v.67Z"/>
        <path class="cls-1" d="M38.32,39.78h-.8l-1.15-1.77c-.12,0-.24.01-.36.01h-1.44v1.75h-.7v-5.62h2.14c1.41,0,2.22.69,2.22,1.9,0,.91-.42,1.54-1.23,1.82l1.31,1.9ZM34.57,37.35h1.44c1.01,0,1.55-.44,1.55-1.28s-.53-1.24-1.55-1.24h-1.44v2.51Z"/>
      </g>
      <g>
        <polygon class="cls-4" points="61.55 32.22 60.1 32.22 56.09 37.09 59.5 41.68 61.01 41.68 57.55 37.09 61.55 32.22"/>
        <polygon class="cls-4" points="53.28 34.17 52.27 34.17 54.73 37.08 52.57 39.77 53.61 39.76 55.73 37.08 53.28 34.17"/>
        <path class="cls-4" d="M42.01,39.78h-.7v-5.62h2.12c1.4,0,2.2.69,2.2,1.9s-.8,1.97-2.2,1.97h-1.42v1.75ZM42.01,37.35h1.39c1,0,1.55-.45,1.55-1.28s-.53-1.24-1.55-1.24h-1.39v2.51Z"/>
        <path class="cls-4" d="M51.7,39.78h-.76v-.02s-.62-1.38-.62-1.38h-2.99l-.62,1.4h-.75l.02-.05,2.5-5.57h.7v.02s2.51,5.6,2.51,5.6ZM47.63,37.69h2.39l-1.2-2.7-1.19,2.7Z"/>
      </g>
    </g>
    <g>
      <text class="cls-2" transform="translate(63.84 39.7) scale(.58)"><tspan class="cls-7" x="0" y="0">GROUP </tspan><tspan class="cls-5" x="52.89" y="0">C</tspan><tspan class="cls-7" x="61.96" y="0">OM</tspan><tspan class="cls-9" x="85.6" y="0">P</tspan><tspan class="cls-8" x="94.23" y="0">ANY</tspan></text>
      <g>
        <polygon class="cls-6" points="150.1 0 143.97 0 127.1 20.47 141.45 39.82 147.79 39.82 133.22 20.47 150.1 0"/>
        <polygon class="cls-6" points="117.32 10.01 113.79 10.01 122.42 20.23 114.86 29.64 118.48 29.63 125.94 20.23 117.32 10.01"/>
      </g>
      <g>
        <path class="cls-1" d="M5.06,28.55c-1.58-.87-2.82-2.07-3.72-3.59-.9-1.52-1.35-3.24-1.35-5.15s.45-3.62,1.35-5.15c.9-1.52,2.14-2.72,3.73-3.59,1.59-.87,3.37-1.3,5.33-1.3,1.53,0,2.93.26,4.21.77,1.27.51,2.36,1.28,3.25,2.29l-1.82,1.77c-1.48-1.55-3.32-2.33-5.52-2.33-1.46,0-2.78.33-3.95.98-1.18.65-2.1,1.56-2.76,2.71-.66,1.15-1,2.44-1,3.86s.33,2.71,1,3.86c.66,1.15,1.58,2.05,2.76,2.71,1.18.65,2.5.98,3.95.98,2.19,0,4.03-.78,5.52-2.36l1.82,1.77c-.9,1.01-1.99,1.78-3.27,2.3-1.28.52-2.69.79-4.22.79-1.96,0-3.73-.43-5.31-1.3Z"/>
        <path class="cls-1" d="M33.9,24.73h-10.43l-2.16,4.91h-2.89l8.89-19.63h2.78l8.92,19.63h-2.94l-2.16-4.91ZM32.92,22.48l-4.23-9.62-4.23,9.62h8.47Z"/>
        <path class="cls-1" d="M44.84,12.44h-6.73v-2.44h16.24v2.44h-6.73v17.19h-2.78V12.44Z"/>
        <path class="cls-1" d="M74.29,10v19.63h-2.8v-8.75h-11.27v8.75h-2.8V10h2.8v8.44h11.27v-8.44h2.8Z"/>
        <path class="cls-6" d="M88.83,11.83c1.46,1.22,2.19,2.89,2.19,5.02s-.73,3.8-2.19,5.02c-1.46,1.22-3.46,1.82-6,1.82h-4.85v5.95h-2.8V10h7.66c2.54,0,4.54.61,6,1.82ZM86.81,20.11c.93-.76,1.4-1.85,1.4-3.27s-.47-2.51-1.4-3.27c-.93-.76-2.29-1.14-4.07-1.14h-4.77v8.81h4.77c1.78,0,3.13-.38,4.07-1.14Z"/>
        <path class="cls-6" d="M106.67,24.73h-10.43l-2.16,4.91h-2.89l8.89-19.63h2.78l8.92,19.63h-2.94l-2.16-4.91ZM105.69,22.48l-4.23-9.62-4.23,9.62h8.47Z"/>
      </g>
    </g>
  </g>
</svg>